<?xml version="1.0" standalone="no"?><svg xmlns="http://www.w3.org/2000/svg" viewBox="0 0 1440 320"><path fill="#00cba9" fill-opacity="0.4" d="M0,256L18.5,229.3C36.9,203,74,149,111,144C147.7,139,185,181,222,176C258.5,171,295,117,332,106.7C369.2,96,406,128,443,165.3C480,203,517,245,554,256C590.8,267,628,245,665,202.7C701.5,160,738,96,775,85.3C812.3,75,849,117,886,144C923.1,171,960,181,997,202.7C1033.8,224,1071,256,1108,234.7C1144.6,213,1182,139,1218,138.7C1255.4,139,1292,213,1329,234.7C1366.2,256,1403,224,1422,208L1440,192L1440,320L1421.5,320C1403.1,320,1366,320,1329,320C1292.3,320,1255,320,1218,320C1181.5,320,1145,320,1108,320C1070.8,320,1034,320,997,320C960,320,923,320,886,320C849.2,320,812,320,775,320C738.5,320,702,320,665,320C627.7,320,591,320,554,320C516.9,320,480,320,443,320C406.2,320,369,320,332,320C295.4,320,258,320,222,320C184.6,320,148,320,111,320C73.8,320,37,320,18,320L0,320Z"></path></svg>