<?xml version="1.0" standalone="no"?><svg xmlns="http://www.w3.org/2000/svg" viewBox="0 0 1440 320"><path fill="#00cba9" fill-opacity="1" d="M0,160L11.4,149.3C22.9,139,46,117,69,117.3C91.4,117,114,139,137,170.7C160,203,183,245,206,229.3C228.6,213,251,139,274,117.3C297.1,96,320,128,343,144C365.7,160,389,160,411,186.7C434.3,213,457,267,480,272C502.9,277,526,235,549,229.3C571.4,224,594,256,617,245.3C640,235,663,181,686,149.3C708.6,117,731,107,754,112C777.1,117,800,139,823,133.3C845.7,128,869,96,891,85.3C914.3,75,937,85,960,117.3C982.9,149,1006,203,1029,240C1051.4,277,1074,299,1097,298.7C1120,299,1143,277,1166,272C1188.6,267,1211,277,1234,240C1257.1,203,1280,117,1303,96C1325.7,75,1349,117,1371,154.7C1394.3,192,1417,224,1429,240L1440,256L1440,0L1428.6,0C1417.1,0,1394,0,1371,0C1348.6,0,1326,0,1303,0C1280,0,1257,0,1234,0C1211.4,0,1189,0,1166,0C1142.9,0,1120,0,1097,0C1074.3,0,1051,0,1029,0C1005.7,0,983,0,960,0C937.1,0,914,0,891,0C868.6,0,846,0,823,0C800,0,777,0,754,0C731.4,0,709,0,686,0C662.9,0,640,0,617,0C594.3,0,571,0,549,0C525.7,0,503,0,480,0C457.1,0,434,0,411,0C388.6,0,366,0,343,0C320,0,297,0,274,0C251.4,0,229,0,206,0C182.9,0,160,0,137,0C114.3,0,91,0,69,0C45.7,0,23,0,11,0L0,0Z"></path></svg>